<svg width="545" height="571" viewBox="0 0 545 571" fill="none" xmlns="http://www.w3.org/2000/svg">
<path d="M321.859 24.0496C326.497 15.4728 321.859 4.03698 312.311 2.8934C240.837 -7.68469 167.727 10.8984 109.347 56.0698C104.164 60.3582 102.527 68.3632 106.074 74.6529L188.187 223.89C193.37 233.324 206.464 233.324 211.92 223.89L321.859 24.0496ZM526.188 180.434C499.453 109.818 446.53 52.9249 380.239 23.1919C373.964 20.333 366.599 23.1919 363.052 29.4816L280.939 178.433C275.756 187.581 282.303 199.589 292.942 199.589H513.366C522.914 199.589 529.734 189.582 526.188 180.434ZM528.097 228.178H358.96C348.594 228.178 341.774 240.186 347.23 249.62L463.443 460.896C468.081 469.473 479.811 470.902 485.813 463.183C533.28 400.858 553.468 319.378 541.737 240.472C541.285 237.032 539.649 233.884 537.137 231.62C534.625 229.356 531.41 228.132 528.097 228.178ZM59.1517 107.817C35.7353 138.924 18.6846 174.753 9.06295 213.07C-0.558734 251.387 -2.54517 291.371 3.22749 330.528C4.04589 337.39 10.0475 342.536 16.8675 342.536H186.004C196.371 342.536 203.191 330.528 197.735 321.094L81.5215 110.104C76.611 101.527 64.8806 100.097 59.1517 107.817ZM18.7772 390.28C45.5117 460.896 98.4351 517.789 164.726 547.522C171 550.381 178.366 547.522 181.912 541.233L264.026 392.282C265.202 390.112 265.819 387.659 265.814 385.163C265.81 382.668 265.184 380.217 264 378.052C262.816 375.887 261.113 374.083 259.06 372.818C257.008 371.554 254.676 370.871 252.295 370.839H31.5988C22.0508 371.125 15.2307 381.132 18.7772 390.28ZM232.381 568.107C303.854 578.685 376.965 560.102 435.345 514.93C440.801 510.642 442.438 502.351 438.891 496.061L356.778 346.824C355.555 344.668 353.818 342.881 351.738 341.641C349.657 340.4 347.305 339.748 344.911 339.748C342.517 339.748 340.165 340.4 338.084 341.641C336.004 342.881 334.267 344.668 333.044 346.824L222.833 546.664C218.195 555.241 223.105 566.677 232.381 568.107Z" fill="black"/>
</svg>
