<svg width="656" height="655" viewBox="0 0 656 655" fill="none" xmlns="http://www.w3.org/2000/svg">
<path d="M328 327.5C371.496 327.5 413.21 310.248 443.966 279.539C474.722 248.83 492 207.179 492 163.75C492 120.321 474.722 78.6703 443.966 47.9613C413.21 17.2522 371.496 0 328 0C284.505 0 242.79 17.2522 212.034 47.9613C181.279 78.6703 164 120.321 164 163.75C164 207.179 181.279 248.83 212.034 279.539C242.79 310.248 284.505 327.5 328 327.5ZM437.333 163.75C437.333 192.703 425.814 220.47 405.31 240.942C384.806 261.415 356.997 272.917 328 272.917C299.003 272.917 271.194 261.415 250.69 240.942C230.186 220.47 218.667 192.703 218.667 163.75C218.667 134.797 230.186 107.03 250.69 86.5575C271.194 66.0848 299.003 54.5833 328 54.5833C356.997 54.5833 384.806 66.0848 405.31 86.5575C425.814 107.03 437.333 134.797 437.333 163.75ZM656 600.417C656 655 601.333 655 601.333 655H54.6667C54.6667 655 0 655 0 600.417C0 545.833 54.6667 382.083 328 382.083C601.333 382.083 656 545.833 656 600.417ZM601.333 600.198C601.279 586.771 592.915 546.379 555.851 509.372C520.208 473.783 453.132 436.667 328 436.667C202.868 436.667 135.792 473.783 100.149 509.372C63.0853 546.379 54.776 586.771 54.6667 600.198H601.333Z" fill="black"/>
</svg>
